<svg xmlns="http://www.w3.org/2000/svg" width="144" height="91" fill="none" viewBox="0 0 144 91"><path fill="#E5E8EC" fill-rule="evenodd" d="M75.9999 30.9374V50.9583L38 70.9791V91.0001L95 60.9687V20.927L75.9999 30.9374Z" clip-rule="evenodd"/><path fill="#D7DCE1" fill-rule="evenodd" d="M0 70.9785L38 90.9995V70.9785L0 50.9578V70.9785Z" clip-rule="evenodd"/><path fill="#fff" fill-rule="evenodd" d="M38 30.9387L76 50.9597L38 70.9805L0 50.9597L38 30.9387Z" clip-rule="evenodd"/><path fill="#D7DCE1" fill-rule="evenodd" d="M38 10.9153L76 30.9361V50.957L38 30.9361V10.9153Z" clip-rule="evenodd"/><path fill="#fff" fill-rule="evenodd" d="M57.0001 0.903076L95 20.9241L76.0002 30.9344L38 10.9135L57.0001 0.903076Z" clip-rule="evenodd"/><path fill="#D7DCE1" fill-rule="evenodd" d="M127 70.9796L110 62.1824V44.5884L127 53.3854V70.9796Z" clip-rule="evenodd"/><path fill="#E5E8EC" fill-rule="evenodd" d="M144 44.5884L127 53.3854V70.9796L144 62.1824V44.5884Z" clip-rule="evenodd"/><path fill="#fff" fill-rule="evenodd" d="M127 35.4871L110 44.5877L127 53.6879L144 44.5877L127 35.4871Z" clip-rule="evenodd"/></svg>