<svg xmlns="http://www.w3.org/2000/svg" width="152" height="176" fill="none" viewBox="0 0 152 176"><path fill="#334B63" fill-rule="evenodd" d="M0 55L57 88L114 55L57 22L0 55Z" clip-rule="evenodd"/><path fill="#132F4C" fill-rule="evenodd" d="M57 88V154L114 121V55L57 88Z" clip-rule="evenodd"/><path fill="#001E3C" fill-rule="evenodd" d="M0 121L57 154V88.0001L0 55V121Z" clip-rule="evenodd"/><path fill="#132F4C" fill-rule="evenodd" d="M133 110V132L95 154V176L152 143V99L133 110Z" clip-rule="evenodd"/><path fill="#001E3C" fill-rule="evenodd" d="M57 154L95 176V154L57 132V154Z" clip-rule="evenodd"/><path fill="#334B63" fill-rule="evenodd" d="M95 110L133 132L95 154L57 132L95 110Z" clip-rule="evenodd"/><path fill="#001E3C" fill-rule="evenodd" d="M95 88L133 110V132L95 110V88Z" clip-rule="evenodd"/><path fill="#334B63" fill-rule="evenodd" d="M114 77L152 99.0001L133 110L95 87.9999L114 77Z" clip-rule="evenodd"/><path fill="#132F4C" fill-rule="evenodd" d="M57 44L76 33.0001V11L57 21.9999V44Z" clip-rule="evenodd"/><path fill="#001E3C" fill-rule="evenodd" d="M38 11L57 21.9999V44L38 32.9998V11Z" clip-rule="evenodd"/><path fill="#334B63" fill-rule="evenodd" d="M57 0L76 10.9999L57 22L38 10.9999L57 0Z" clip-rule="evenodd"/></svg>