<svg xmlns="http://www.w3.org/2000/svg" width="24" height="24" enable-background="new 0 0 24 24" viewBox="0 0 24 24"><g><rect width="24" height="24" fill="none"/></g><g><g><polygon points="8 8 6 8 6 17 17 17 17 15 8 15"/><path d="M22,3H10v10h12V3z M20,11h-8V7h8V11z"/><polygon points="4 12 2 12 2 21 13 21 13 19 4 19"/></g></g><g display="none"><g display="inline"><polygon points="8 8 6 8 6 17 17 17 17 15 8 15"/><path d="M22,3H10v10h12V3z M20,11h-8V7h8V11z"/><polygon points="4 12 2 12 2 21 13 21 13 19 4 19"/></g></g></svg>