<svg xmlns="http://www.w3.org/2000/svg" width="91" height="68" fill="none" viewBox="0 0 91 68"><path fill="#00B7E9" fill-rule="evenodd" d="M77.0999 22.7143V37.6008L51.4072 52.4875V67.3742L89.9464 45.0442V15.271L77.0999 22.7143Z" clip-rule="evenodd"/><path fill="#00C8FF" fill-rule="evenodd" d="M25.7144 52.4875L51.4072 67.3742V52.4875L25.7144 37.6008V52.4875Z" clip-rule="evenodd"/><path fill="#7CE3FF" fill-rule="evenodd" d="M51.4071 22.7144L77.0998 37.6009L51.4071 52.4877L25.7144 37.6009L51.4071 22.7144Z" clip-rule="evenodd"/><path fill="#00C8FF" fill-rule="evenodd" d="M51.4072 7.82764L77.0999 22.7142V37.6009L51.4072 22.7142V7.82764Z" clip-rule="evenodd"/><path fill="#7CE3FF" fill-rule="evenodd" d="M51.4072 7.82754L77.0999 22.7142L89.9464 15.271L64.2535 0.384277L51.4072 7.82754Z" clip-rule="evenodd"/><path fill="#00C8FF" fill-rule="evenodd" d="M0 34.2744V49.1609L12.8464 56.6044V41.7178L0 34.2744Z" clip-rule="evenodd"/><path fill="#00B7E9" fill-rule="evenodd" d="M51.3854 19.3877V34.2742L12.8462 56.6043V41.7176L51.3854 19.3877Z" clip-rule="evenodd"/><path fill="#7CE3FF" fill-rule="evenodd" d="M38.5392 11.9443L0 34.2743L12.8464 41.7177L51.3856 19.3878L38.5392 11.9443Z" clip-rule="evenodd"/></svg>